<mxfile host="app.diagrams.net" agent="Mozilla/5.0 (Windows NT 10.0; Win64; x64) AppleWebKit/537.36 (KHTML, like Gecko) Chrome/132.0.0.0 Safari/537.36" version="26.0.11">
  <diagram name="Trang-1" id="9CXXCEQQvz_99VvId4QO">
    <mxGraphModel dx="2003" dy="511" grid="0" gridSize="10" guides="1" tooltips="1" connect="1" arrows="1" fold="1" page="1" pageScale="1" pageWidth="827" pageHeight="1169" math="0" shadow="0">
      <root>
        <mxCell id="0" />
        <mxCell id="1" parent="0" />
        <mxCell id="loZQ2nehsBihNHuNYQYr-1" value="https://www.notion.so/ct-196b2a4ed31f806a9345de2442820092?pvs=4" style="text;html=1;align=left;verticalAlign=middle;whiteSpace=wrap;rounded=0;fontFamily=Helvetica;fontSize=12;fontColor=default;" parent="1" vertex="1">
          <mxGeometry x="130" y="22" width="502" height="30" as="geometry" />
        </mxCell>
        <mxCell id="hAMeLypE6qXB-dUCFsiH-1" value="" style="endArrow=none;html=1;rounded=0;" edge="1" parent="1">
          <mxGeometry width="50" height="50" relative="1" as="geometry">
            <mxPoint x="148" y="358" as="sourcePoint" />
            <mxPoint x="810" y="358" as="targetPoint" />
          </mxGeometry>
        </mxCell>
        <mxCell id="hAMeLypE6qXB-dUCFsiH-2" value="" style="endArrow=none;html=1;rounded=0;" edge="1" parent="1">
          <mxGeometry width="50" height="50" relative="1" as="geometry">
            <mxPoint x="142" y="149" as="sourcePoint" />
            <mxPoint x="146" y="360" as="targetPoint" />
          </mxGeometry>
        </mxCell>
        <mxCell id="hAMeLypE6qXB-dUCFsiH-4" value="" style="ellipse;whiteSpace=wrap;html=1;aspect=fixed;fillColor=light-dark(#000000,var(--ge-dark-color, #121212));" vertex="1" parent="1">
          <mxGeometry x="231" y="232" width="9" height="9" as="geometry" />
        </mxCell>
        <mxCell id="hAMeLypE6qXB-dUCFsiH-8" value="" style="ellipse;whiteSpace=wrap;html=1;aspect=fixed;fillColor=light-dark(#000000,var(--ge-dark-color, #121212));" vertex="1" parent="1">
          <mxGeometry x="341" y="196" width="9" height="9" as="geometry" />
        </mxCell>
        <mxCell id="hAMeLypE6qXB-dUCFsiH-9" value="" style="ellipse;whiteSpace=wrap;html=1;aspect=fixed;fillColor=light-dark(#000000,var(--ge-dark-color, #121212));" vertex="1" parent="1">
          <mxGeometry x="398" y="152" width="9" height="9" as="geometry" />
        </mxCell>
        <mxCell id="hAMeLypE6qXB-dUCFsiH-10" value="" style="ellipse;whiteSpace=wrap;html=1;aspect=fixed;fillColor=light-dark(#000000,var(--ge-dark-color, #121212));" vertex="1" parent="1">
          <mxGeometry x="496" y="148" width="9" height="9" as="geometry" />
        </mxCell>
        <mxCell id="hAMeLypE6qXB-dUCFsiH-11" value="" style="ellipse;whiteSpace=wrap;html=1;aspect=fixed;fillColor=light-dark(#000000,var(--ge-dark-color, #121212));" vertex="1" parent="1">
          <mxGeometry x="585" y="167" width="9" height="9" as="geometry" />
        </mxCell>
        <mxCell id="hAMeLypE6qXB-dUCFsiH-14" value="" style="endArrow=none;html=1;rounded=0;exitX=0;exitY=0;exitDx=0;exitDy=0;entryX=0.5;entryY=1;entryDx=0;entryDy=0;" edge="1" parent="1" source="hAMeLypE6qXB-dUCFsiH-4" target="hAMeLypE6qXB-dUCFsiH-8">
          <mxGeometry width="50" height="50" relative="1" as="geometry">
            <mxPoint x="345" y="480" as="sourcePoint" />
            <mxPoint x="395" y="430" as="targetPoint" />
          </mxGeometry>
        </mxCell>
        <mxCell id="hAMeLypE6qXB-dUCFsiH-15" value="" style="endArrow=none;html=1;rounded=0;exitX=1;exitY=0.5;exitDx=0;exitDy=0;entryX=0.5;entryY=1;entryDx=0;entryDy=0;" edge="1" parent="1" source="hAMeLypE6qXB-dUCFsiH-8" target="hAMeLypE6qXB-dUCFsiH-9">
          <mxGeometry width="50" height="50" relative="1" as="geometry">
            <mxPoint x="242" y="243" as="sourcePoint" />
            <mxPoint x="356" y="215" as="targetPoint" />
          </mxGeometry>
        </mxCell>
        <mxCell id="hAMeLypE6qXB-dUCFsiH-16" value="" style="endArrow=none;html=1;rounded=0;exitX=0.5;exitY=1;exitDx=0;exitDy=0;entryX=0;entryY=0.5;entryDx=0;entryDy=0;" edge="1" parent="1" source="hAMeLypE6qXB-dUCFsiH-9" target="hAMeLypE6qXB-dUCFsiH-10">
          <mxGeometry width="50" height="50" relative="1" as="geometry">
            <mxPoint x="360" y="211" as="sourcePoint" />
            <mxPoint x="413" y="171" as="targetPoint" />
          </mxGeometry>
        </mxCell>
        <mxCell id="hAMeLypE6qXB-dUCFsiH-17" value="" style="endArrow=none;html=1;rounded=0;exitX=0;exitY=1;exitDx=0;exitDy=0;entryX=0;entryY=0.5;entryDx=0;entryDy=0;" edge="1" parent="1" source="hAMeLypE6qXB-dUCFsiH-10" target="hAMeLypE6qXB-dUCFsiH-11">
          <mxGeometry width="50" height="50" relative="1" as="geometry">
            <mxPoint x="413" y="171" as="sourcePoint" />
            <mxPoint x="506" y="163" as="targetPoint" />
          </mxGeometry>
        </mxCell>
        <mxCell id="hAMeLypE6qXB-dUCFsiH-18" value="" style="ellipse;whiteSpace=wrap;html=1;aspect=fixed;fillColor=light-dark(#000000,var(--ge-dark-color, #121212));" vertex="1" parent="1">
          <mxGeometry x="243" y="280" width="9" height="9" as="geometry" />
        </mxCell>
        <mxCell id="hAMeLypE6qXB-dUCFsiH-19" value="" style="ellipse;whiteSpace=wrap;html=1;aspect=fixed;fillColor=light-dark(#000000,var(--ge-dark-color, #121212));" vertex="1" parent="1">
          <mxGeometry x="353" y="244" width="9" height="9" as="geometry" />
        </mxCell>
        <mxCell id="hAMeLypE6qXB-dUCFsiH-20" value="" style="ellipse;whiteSpace=wrap;html=1;aspect=fixed;fillColor=light-dark(#000000,var(--ge-dark-color, #121212));" vertex="1" parent="1">
          <mxGeometry x="379" y="81" width="9" height="9" as="geometry" />
        </mxCell>
        <mxCell id="hAMeLypE6qXB-dUCFsiH-21" value="" style="ellipse;whiteSpace=wrap;html=1;aspect=fixed;fillColor=light-dark(#000000,var(--ge-dark-color, #121212));" vertex="1" parent="1">
          <mxGeometry x="508" y="196" width="9" height="9" as="geometry" />
        </mxCell>
        <mxCell id="hAMeLypE6qXB-dUCFsiH-22" value="" style="ellipse;whiteSpace=wrap;html=1;aspect=fixed;fillColor=light-dark(#000000,var(--ge-dark-color, #121212));" vertex="1" parent="1">
          <mxGeometry x="597" y="215" width="9" height="9" as="geometry" />
        </mxCell>
        <mxCell id="hAMeLypE6qXB-dUCFsiH-23" value="" style="endArrow=none;html=1;rounded=0;exitX=0;exitY=0;exitDx=0;exitDy=0;entryX=0.5;entryY=1;entryDx=0;entryDy=0;fillColor=#6666FF;" edge="1" parent="1" source="hAMeLypE6qXB-dUCFsiH-18" target="hAMeLypE6qXB-dUCFsiH-19">
          <mxGeometry width="50" height="50" relative="1" as="geometry">
            <mxPoint x="357" y="528" as="sourcePoint" />
            <mxPoint x="407" y="478" as="targetPoint" />
          </mxGeometry>
        </mxCell>
        <mxCell id="hAMeLypE6qXB-dUCFsiH-24" value="" style="endArrow=none;html=1;rounded=0;exitX=1;exitY=0.5;exitDx=0;exitDy=0;entryX=0.5;entryY=1;entryDx=0;entryDy=0;fillColor=#6666FF;" edge="1" parent="1" source="hAMeLypE6qXB-dUCFsiH-19" target="hAMeLypE6qXB-dUCFsiH-20">
          <mxGeometry width="50" height="50" relative="1" as="geometry">
            <mxPoint x="254" y="291" as="sourcePoint" />
            <mxPoint x="368" y="263" as="targetPoint" />
          </mxGeometry>
        </mxCell>
        <mxCell id="hAMeLypE6qXB-dUCFsiH-25" value="" style="endArrow=none;html=1;rounded=0;exitX=0.5;exitY=1;exitDx=0;exitDy=0;entryX=0;entryY=0.5;entryDx=0;entryDy=0;fillColor=#6666FF;" edge="1" parent="1" source="hAMeLypE6qXB-dUCFsiH-20" target="hAMeLypE6qXB-dUCFsiH-21">
          <mxGeometry width="50" height="50" relative="1" as="geometry">
            <mxPoint x="372" y="259" as="sourcePoint" />
            <mxPoint x="425" y="219" as="targetPoint" />
          </mxGeometry>
        </mxCell>
        <mxCell id="hAMeLypE6qXB-dUCFsiH-26" value="" style="endArrow=none;html=1;rounded=0;exitX=0;exitY=1;exitDx=0;exitDy=0;entryX=0;entryY=0.5;entryDx=0;entryDy=0;fillColor=#6666FF;" edge="1" parent="1" source="hAMeLypE6qXB-dUCFsiH-21" target="hAMeLypE6qXB-dUCFsiH-22">
          <mxGeometry width="50" height="50" relative="1" as="geometry">
            <mxPoint x="425" y="219" as="sourcePoint" />
            <mxPoint x="518" y="211" as="targetPoint" />
          </mxGeometry>
        </mxCell>
        <mxCell id="hAMeLypE6qXB-dUCFsiH-27" value="" style="endArrow=none;html=1;rounded=0;" edge="1" parent="1">
          <mxGeometry width="50" height="50" relative="1" as="geometry">
            <mxPoint x="245" y="369" as="sourcePoint" />
            <mxPoint x="245" y="348" as="targetPoint" />
          </mxGeometry>
        </mxCell>
        <mxCell id="hAMeLypE6qXB-dUCFsiH-28" value="Thứ tự chạy" style="text;html=1;align=center;verticalAlign=middle;whiteSpace=wrap;rounded=0;" vertex="1" parent="1">
          <mxGeometry x="-38" y="400" width="60" height="30" as="geometry" />
        </mxCell>
        <mxCell id="hAMeLypE6qXB-dUCFsiH-29" value="XGB_20:&lt;br/&gt;&#x9;&#x9;&#x9;n_estimators: 300-500-50&lt;br/&gt;      max_depth: 15-20-1&lt;br/&gt;      subsample: 0.7-0.9-0.1&lt;br/&gt;      colsample_bytree: 0.7-0.9-0.1&lt;br/&gt;      learning_rate: 0.01-0.03-0.01&lt;br/&gt;      reg_alpha: 3-5-1&lt;br/&gt;      reg_lambda: 3-5-1" style="text;html=1;align=center;verticalAlign=middle;whiteSpace=wrap;rounded=0;" vertex="1" parent="1">
          <mxGeometry x="167" y="377" width="174" height="128" as="geometry" />
        </mxCell>
      </root>
    </mxGraphModel>
  </diagram>
</mxfile>
